<svg width="32" height="32" viewBox="0 0 32 32" fill="none" xmlns="http://www.w3.org/2000/svg">
  <rect width="32" height="32" rx="8" fill="url(#paint0_linear)"/>
  <path d="M11.5 13C11.5 9.96243 13.9624 7.5 17 7.5C20.0376 7.5 22.5 9.96243 22.5 13C22.5 14.8152 21.6438 16.4417 20.3219 17.5H13.6781C12.3562 16.4417 11.5 14.8152 11.5 13Z" fill="white" stroke="white" stroke-width="1.5"/>
  <path d="M13 17.5V19.5C13 20.0523 13.4477 20.5 14 20.5H20C20.5523 20.5 21 20.0523 21 19.5V17.5" stroke="white" stroke-width="1.5" stroke-linecap="round"/>
  <path d="M15 20.5V22.5C15 23.0523 15.4477 23.5 16 23.5V23.5C16.5523 23.5 17 23.0523 17 22.5V20.5" stroke="white" stroke-width="1.5" stroke-linecap="round"/>
  <defs>
    <linearGradient id="paint0_linear" x1="0" y1="0" x2="32" y2="32" gradientUnits="userSpaceOnUse">
      <stop stop-color="#8B5CF6"/>
      <stop offset="1" stop-color="#3B82F6"/>
    </linearGradient>
  </defs>
</svg>
